<?xml version="1.0" encoding="UTF-8" standalone="no"?>
<!DOCTYPE svg PUBLIC "-//W3C//DTD SVG 1.1//EN" "http://www.w3.org/Graphics/SVG/1.1/DTD/svg11.dtd">
<svg width="100%" height="100%" viewBox="0 0 134 134" version="1.1" xmlns="http://www.w3.org/2000/svg" xmlns:xlink="http://www.w3.org/1999/xlink" xml:space="preserve" xmlns:serif="http://www.serif.com/" style="fill-rule:evenodd;clip-rule:evenodd;stroke-linejoin:round;stroke-miterlimit:2;">
    <g transform="matrix(5.55556,0,0,5.55556,0,0)">
        <g transform="matrix(3.77953,0,0,3.77953,0,-1098.52)">
            <path d="M3.175,290.65C1.422,290.65 0,292.072 0,293.825C0,295.578 1.422,297 3.175,297C4.928,297 6.35,295.578 6.35,293.825C6.35,292.072 4.928,290.65 3.175,290.65ZM3.175,291.397C4.515,291.397 5.603,292.485 5.603,293.825C5.603,295.165 4.515,296.253 3.175,296.253C1.835,296.253 0.747,295.165 0.747,293.825C0.747,292.485 1.835,291.397 3.175,291.397Z" style="fill-rule:nonzero;"/>
        </g>
    </g>
</svg>
